<svg xmlns="http://www.w3.org/2000/svg" viewBox="0 0 96 96" width="96" height="96">
  <ellipse cx="48" cy="89" rx="20" ry="5" fill="#000" opacity="0.25"/>
  <path d="M48 8 L30 24 L22 54 L25 82 L71 82 L74 54 L66 24 Z" fill="#5b4333"/>
  <path d="M48 13 L34 27 L31 45 L65 45 L62 27 Z" fill="#2a211c"/>
  <rect x="34" y="29" width="28" height="18" rx="4" fill="#57595d"/>
  <circle cx="56" cy="36" r="3.5" fill="#ff4d2e"/>
  <circle cx="56" cy="36" r="1.6" fill="#ffb097"/>
  <path d="M34 45 L48 55 L62 45 L58 41 L48 48 L38 41 Z" fill="#8f6240"/>
  <rect x="29" y="56" width="38" height="5" rx="2" fill="#46372d"/>
  <rect x="30" y="62" width="36" height="5" rx="2" fill="#403229"/>
  <rect x="31" y="68" width="34" height="5" rx="2" fill="#3a2d25"/>
  <rect x="21" y="49" width="10" height="30" rx="4" fill="#4a3a30"/>
  <rect x="65" y="49" width="10" height="30" rx="4" fill="#4a3a30"/>
  <rect x="34" y="72" width="12" height="18" rx="4" fill="#302720"/>
  <rect x="50" y="72" width="12" height="18" rx="4" fill="#302720"/>
  <rect x="30" y="88" width="16" height="7" rx="3" fill="#44362c"/>
  <rect x="50" y="88" width="16" height="7" rx="3" fill="#44362c"/>
</svg>
